<svg width="396pt" height="238pt"
 viewBox="0.00 0.00 396.01 238.00" xmlns="http://www.w3.org/2000/svg" xmlns:xlink="http://www.w3.org/1999/xlink">
<g id="graph0" class="graph" transform="scale(1 1) rotate(0) translate(4 234)">
<title>%0</title>
<polygon fill="#ffffff" stroke="transparent" points="-4,4 -4,-234 392.0056,-234 392.0056,4 -4,4"/>
<text text-anchor="middle" x="194.0028" y="-194.5" font-family="Times,serif" font-size="35.00" fill="#000000">uc&#45;backend</text>
<!-- :cloud&#45;managment -->
<g id="node1" class="node">
<title>:cloud&#45;managment</title>
<ellipse fill="#ff8a65" stroke="#000000" cx="83.4443" cy="-90" rx="83.3886" ry="18"/>
<text text-anchor="middle" x="83.4443" y="-85.8" font-family="Times New Roman" font-size="14.00" fill="#000000">:cloud&#45;managment</text>
</g>
<!-- :commons -->
<g id="node2" class="node">
<title>:commons</title>
<ellipse fill="#ff8a65" stroke="#000000" cx="228.4443" cy="-18" rx="51.0453" ry="18"/>
<text text-anchor="middle" x="228.4443" y="-13.8" font-family="Times New Roman" font-size="14.00" fill="#000000">:commons</text>
</g>
<!-- :cloud&#45;managment&#45;&gt;:commons -->
<g id="edge1" class="edge">
<title>:cloud&#45;managment&#45;&gt;:commons</title>
<path fill="none" stroke="#000000" stroke-dasharray="1,5" d="M116.7102,-73.4817C138.4622,-62.6808 166.9569,-48.5316 189.7262,-37.2255"/>
<polygon fill="#000000" stroke="#000000" points="191.3789,-40.3127 198.7789,-32.7304 188.2656,-34.0431 191.3789,-40.3127"/>
</g>
<!-- :groups -->
<g id="node3" class="node">
<title>:groups</title>
<ellipse fill="#ff8a65" stroke="#000000" cx="262.4443" cy="-90" rx="40.0089" ry="18"/>
<text text-anchor="middle" x="262.4443" y="-85.8" font-family="Times New Roman" font-size="14.00" fill="#000000">:groups</text>
</g>
<!-- :groups&#45;&gt;:commons -->
<g id="edge2" class="edge">
<title>:groups&#45;&gt;:commons</title>
<path fill="none" stroke="#000000" stroke-dasharray="1,5" d="M254.0398,-72.2022C250.1575,-63.981 245.4637,-54.041 241.1613,-44.9301"/>
<polygon fill="#000000" stroke="#000000" points="244.3049,-43.3905 236.8699,-35.8425 237.9752,-46.3796 244.3049,-43.3905"/>
</g>
<!-- :starter -->
<g id="node4" class="node">
<title>:starter</title>
<polygon fill="#ff8a65" stroke="#000000" points="255.8112,-180 201.0773,-180 201.0773,-144 255.8112,-144 255.8112,-180"/>
<text text-anchor="middle" x="228.4443" y="-157.8" font-family="Times New Roman" font-size="14.00" fill="#000000">:starter</text>
</g>
<!-- :starter&#45;&gt;:cloud&#45;managment -->
<g id="edge4" class="edge">
<title>:starter&#45;&gt;:cloud&#45;managment</title>
<path fill="none" stroke="#000000" stroke-dasharray="1,5" d="M200.8296,-148.2879C179.6271,-137.7598 149.9809,-123.0389 125.7871,-111.0254"/>
<polygon fill="#000000" stroke="#000000" points="127.3237,-107.8807 116.8104,-106.568 124.2104,-114.1503 127.3237,-107.8807"/>
</g>
<!-- :starter&#45;&gt;:commons -->
<g id="edge5" class="edge">
<title>:starter&#45;&gt;:commons</title>
<path fill="none" stroke="#000000" stroke-dasharray="1,5" d="M222.0495,-143.7647C218.7597,-133.4187 215.1001,-120.1474 213.4443,-108 211.2833,-92.1466 211.2833,-87.8534 213.4443,-72 214.6214,-63.3639 216.8114,-54.1599 219.1612,-45.8427"/>
<polygon fill="#000000" stroke="#000000" points="222.5222,-46.8195 222.0495,-36.2353 215.8186,-44.8042 222.5222,-46.8195"/>
</g>
<!-- :starter&#45;&gt;:groups -->
<g id="edge6" class="edge">
<title>:starter&#45;&gt;:groups</title>
<path fill="none" stroke="#000000" stroke-dasharray="1,5" d="M237.0239,-143.8314C240.8379,-135.7547 245.4083,-126.0761 249.6155,-117.1668"/>
<polygon fill="#000000" stroke="#000000" points="252.8799,-118.4504 253.9852,-107.9134 246.5502,-115.4614 252.8799,-118.4504"/>
</g>
<!-- :users -->
<g id="node5" class="node">
<title>:users</title>
<ellipse fill="#ff8a65" stroke="#000000" cx="354.4443" cy="-90" rx="33.6228" ry="18"/>
<text text-anchor="middle" x="354.4443" y="-85.8" font-family="Times New Roman" font-size="14.00" fill="#000000">:users</text>
</g>
<!-- :starter&#45;&gt;:users -->
<g id="edge3" class="edge">
<title>:starter&#45;&gt;:users</title>
<path fill="none" stroke="#000000" stroke-dasharray="1,5" d="M256.0955,-146.1993C275.5699,-135.0711 301.7071,-120.1355 322.1417,-108.4586"/>
<polygon fill="#000000" stroke="#000000" points="324.1389,-111.3486 331.0848,-103.3483 320.6659,-105.2709 324.1389,-111.3486"/>
</g>
<!-- :users&#45;&gt;:commons -->
<g id="edge7" class="edge">
<title>:users&#45;&gt;:commons</title>
<path fill="none" stroke="#000000" stroke-dasharray="1,5" d="M331.3339,-76.7941C312.5602,-66.0663 285.7582,-50.7508 264.2158,-38.4408"/>
<polygon fill="#000000" stroke="#000000" points="265.763,-35.2939 255.344,-33.3713 262.29,-41.3716 265.763,-35.2939"/>
</g>
</g>
</svg>
