<svg width="474pt" height="238pt"
 viewBox="0.00 0.00 474.35 238.00" xmlns="http://www.w3.org/2000/svg" xmlns:xlink="http://www.w3.org/1999/xlink">
<g id="graph0" class="graph" transform="scale(1 1) rotate(0) translate(4 234)">
<title>%0</title>
<polygon fill="#ffffff" stroke="transparent" points="-4,4 -4,-234 470.3519,-234 470.3519,4 -4,4"/>
<text text-anchor="middle" x="233.176" y="-194.5" font-family="Times,serif" font-size="35.00" fill="#000000">uc&#45;backend</text>
<!-- :auth -->
<g id="node1" class="node">
<title>:auth</title>
<ellipse fill="#ff8a65" stroke="#000000" cx="30.3475" cy="-90" rx="30.1958" ry="18"/>
<text text-anchor="middle" x="30.3475" y="-85.8" font-family="Times New Roman" font-size="14.00" fill="#000000">:auth</text>
</g>
<!-- :commons -->
<g id="node2" class="node">
<title>:commons</title>
<ellipse fill="#ff8a65" stroke="#000000" cx="150.3475" cy="-18" rx="51.0453" ry="18"/>
<text text-anchor="middle" x="150.3475" y="-13.8" font-family="Times New Roman" font-size="14.00" fill="#000000">:commons</text>
</g>
<!-- :auth&#45;&gt;:commons -->
<g id="edge1" class="edge">
<title>:auth&#45;&gt;:commons</title>
<path fill="none" stroke="#000000" stroke-dasharray="1,5" d="M51.8011,-77.1278C69.4184,-66.5575 94.7245,-51.3738 115.2811,-39.0399"/>
<polygon fill="#000000" stroke="#000000" points="117.2805,-41.9219 124.0547,-33.7757 113.679,-35.9194 117.2805,-41.9219"/>
</g>
<!-- :bootstrap -->
<g id="node3" class="node">
<title>:bootstrap</title>
<polygon fill="#ff8a65" stroke="#000000" points="186.3391,-180 114.3559,-180 114.3559,-144 186.3391,-144 186.3391,-180"/>
<text text-anchor="middle" x="150.3475" y="-157.8" font-family="Times New Roman" font-size="14.00" fill="#000000">:bootstrap</text>
</g>
<!-- :bootstrap&#45;&gt;:auth -->
<g id="edge6" class="edge">
<title>:bootstrap&#45;&gt;:auth</title>
<path fill="none" stroke="#000000" stroke-dasharray="1,5" d="M120.0664,-143.8314C101.9741,-132.9759 79.0585,-119.2266 60.9155,-108.3408"/>
<polygon fill="#000000" stroke="#000000" points="62.2894,-105.0835 51.9137,-102.9397 58.6879,-111.0859 62.2894,-105.0835"/>
</g>
<!-- :bootstrap&#45;&gt;:commons -->
<g id="edge4" class="edge">
<title>:bootstrap&#45;&gt;:commons</title>
<path fill="none" stroke="#000000" stroke-dasharray="1,5" d="M130.8519,-143.9663C121.8372,-134.2894 112.0924,-121.5757 107.3475,-108 102.0685,-92.896 102.0685,-87.104 107.3475,-72 111.0631,-61.3692 117.8446,-51.267 124.9407,-42.7377"/>
<polygon fill="#000000" stroke="#000000" points="127.7232,-44.8756 131.7507,-35.0762 122.4912,-40.2252 127.7232,-44.8756"/>
</g>
<!-- :users -->
<g id="node4" class="node">
<title>:users</title>
<ellipse fill="#ff8a65" stroke="#000000" cx="150.3475" cy="-90" rx="33.6228" ry="18"/>
<text text-anchor="middle" x="150.3475" y="-85.8" font-family="Times New Roman" font-size="14.00" fill="#000000">:users</text>
</g>
<!-- :bootstrap&#45;&gt;:users -->
<g id="edge2" class="edge">
<title>:bootstrap&#45;&gt;:users</title>
<path fill="none" stroke="#000000" stroke-dasharray="1,5" d="M150.3475,-143.8314C150.3475,-136.131 150.3475,-126.9743 150.3475,-118.4166"/>
<polygon fill="#000000" stroke="#000000" points="153.8476,-118.4132 150.3475,-108.4133 146.8476,-118.4133 153.8476,-118.4132"/>
</g>
<!-- :cloud&#45;managment -->
<g id="node5" class="node">
<title>:cloud&#45;managment</title>
<ellipse fill="#ff8a65" stroke="#000000" cx="285.3475" cy="-90" rx="83.3886" ry="18"/>
<text text-anchor="middle" x="285.3475" y="-85.8" font-family="Times New Roman" font-size="14.00" fill="#000000">:cloud&#45;managment</text>
</g>
<!-- :bootstrap&#45;&gt;:cloud&#45;managment -->
<g id="edge3" class="edge">
<title>:bootstrap&#45;&gt;:cloud&#45;managment</title>
<path fill="none" stroke="#000000" stroke-dasharray="1,5" d="M184.4137,-143.8314C202.7551,-134.0493 225.5025,-121.9173 244.7569,-111.6483"/>
<polygon fill="#000000" stroke="#000000" points="246.4342,-114.7205 253.6107,-106.9263 243.1401,-108.544 246.4342,-114.7205"/>
</g>
<!-- :groups -->
<g id="node6" class="node">
<title>:groups</title>
<ellipse fill="#ff8a65" stroke="#000000" cx="426.3475" cy="-90" rx="40.0089" ry="18"/>
<text text-anchor="middle" x="426.3475" y="-85.8" font-family="Times New Roman" font-size="14.00" fill="#000000">:groups</text>
</g>
<!-- :bootstrap&#45;&gt;:groups -->
<g id="edge5" class="edge">
<title>:bootstrap&#45;&gt;:groups</title>
<path fill="none" stroke="#000000" stroke-dasharray="1,5" d="M186.4751,-154.7879C231.5593,-145.4725 310.8305,-128.0521 377.3475,-108 380.2896,-107.1131 383.3119,-106.1454 386.3415,-105.1338"/>
<polygon fill="#000000" stroke="#000000" points="387.6537,-108.3832 395.954,-101.7987 385.3592,-101.77 387.6537,-108.3832"/>
</g>
<!-- :users&#45;&gt;:commons -->
<g id="edge7" class="edge">
<title>:users&#45;&gt;:commons</title>
<path fill="none" stroke="#000000" stroke-dasharray="1,5" d="M150.3475,-71.8314C150.3475,-64.131 150.3475,-54.9743 150.3475,-46.4166"/>
<polygon fill="#000000" stroke="#000000" points="153.8476,-46.4132 150.3475,-36.4133 146.8476,-46.4133 153.8476,-46.4132"/>
</g>
<!-- :cloud&#45;managment&#45;&gt;:commons -->
<g id="edge8" class="edge">
<title>:cloud&#45;managment&#45;&gt;:commons</title>
<path fill="none" stroke="#000000" stroke-dasharray="1,5" d="M254.0365,-73.3008C234.2241,-62.7342 208.506,-49.0179 187.64,-37.8893"/>
<polygon fill="#000000" stroke="#000000" points="189.2008,-34.7551 178.7302,-33.1374 185.9067,-40.9316 189.2008,-34.7551"/>
</g>
<!-- :groups&#45;&gt;:commons -->
<g id="edge9" class="edge">
<title>:groups&#45;&gt;:commons</title>
<path fill="none" stroke="#000000" stroke-dasharray="1,5" d="M395.954,-78.2013C389.8373,-76.0066 383.4214,-73.831 377.3475,-72 319.1716,-54.4624 251.2398,-38.9379 204.9558,-29.0881"/>
<polygon fill="#000000" stroke="#000000" points="205.637,-25.6548 195.1296,-27.013 204.1906,-32.5037 205.637,-25.6548"/>
</g>
</g>
</svg>
